<svg width="15" height="22" viewBox="0 0 15 22" fill="none" xmlns="http://www.w3.org/2000/svg">
<path d="M8.34354 1.1C8.3363 1.085 8.32906 1.0775 8.32906 1.0625C8.31458 1.0325 8.30009 1.0025 8.28561 0.9725C8.27113 0.95 8.25665 0.92 8.24217 0.8975C8.22769 0.875 8.20596 0.8525 8.19148 0.83C8.16976 0.8075 8.15528 0.785 8.13356 0.7625C8.11184 0.74 8.09735 0.725 8.07563 0.71C8.05391 0.6875 8.02495 0.6725 8.00323 0.65C7.9815 0.635 7.95978 0.62 7.93806 0.6125C7.9091 0.5975 7.88013 0.5825 7.84393 0.5675C7.82945 0.56 7.82221 0.5525 7.80773 0.5525C7.79325 0.545 7.78601 0.545 7.77152 0.545C7.73532 0.5375 7.70636 0.5225 7.67016 0.5225C7.64843 0.515 7.61947 0.515 7.59775 0.5075C7.56879 0.5075 7.53982 0.5 7.50362 0.5C7.47466 0.5 7.4457 0.5 7.41673 0.5075C7.38777 0.5075 7.36605 0.515 7.33709 0.5225C7.30088 0.53 7.27192 0.5375 7.24296 0.545C7.22848 0.5525 7.22123 0.5525 7.20675 0.5525C7.19227 0.56 7.18503 0.5675 7.17055 0.5675C7.14159 0.5825 7.11263 0.5975 7.08366 0.6125C7.06194 0.6275 7.04022 0.6425 7.0185 0.65C6.98953 0.665 6.96781 0.6875 6.94609 0.71C6.92437 0.725 6.90265 0.7475 6.88816 0.7625C6.86644 0.785 6.84472 0.8075 6.83024 0.83C6.80852 0.8525 6.79404 0.875 6.77956 0.8975C6.76507 0.92 6.75059 0.9425 6.73611 0.9725C6.72163 1.0025 6.70715 1.0325 6.69267 1.0625C6.68543 1.0775 6.67819 1.085 6.67819 1.1L0.0529852 20.27C-0.11355 20.75 0.125392 21.275 0.588794 21.4475C0.690164 21.485 0.791532 21.5 0.885661 21.5C1.24769 21.5 1.588 21.2675 1.71834 20.8925L3.61539 15.395H11.3122C11.3339 15.395 11.3556 15.3875 11.3846 15.3875L13.2817 20.8925C13.412 21.2675 13.7523 21.5 14.1143 21.5C14.2157 21.5 14.3171 21.485 14.4112 21.4475C14.8746 21.275 15.1136 20.75 14.947 20.27L8.34354 1.1ZM4.25981 13.55L7.51086 4.1375L10.7619 13.55H4.25981Z" fill="#FCFCFC"/>
</svg>
