<svg width="14" height="14" viewBox="0 0 14 14" fill="none" xmlns="http://www.w3.org/2000/svg">
<path d="M6.06659 8.20065L4.61659 6.75065C4.49436 6.62843 4.34436 6.56732 4.16659 6.56732C3.98881 6.56732 3.83325 6.63399 3.69992 6.76732C3.5777 6.88954 3.51659 7.0451 3.51659 7.23399C3.51659 7.42287 3.5777 7.57843 3.69992 7.70065L5.59992 9.60065C5.72214 9.72287 5.8777 9.78399 6.06659 9.78399C6.25548 9.78399 6.41103 9.72287 6.53325 9.60065L10.3166 5.81732C10.4388 5.6951 10.4999 5.5451 10.4999 5.36732C10.4999 5.18954 10.4333 5.03399 10.2999 4.90065C10.1777 4.77843 10.0221 4.71732 9.83325 4.71732C9.64436 4.71732 9.48881 4.77843 9.36659 4.90065L6.06659 8.20065ZM6.99992 13.6673C6.0777 13.6673 5.21103 13.4922 4.39992 13.142C3.58881 12.7922 2.88325 12.3173 2.28325 11.7173C1.68325 11.1173 1.20836 10.4118 0.858585 9.60065C0.508363 8.78954 0.333252 7.92287 0.333252 7.00065C0.333252 6.07843 0.508363 5.21176 0.858585 4.40065C1.20836 3.58954 1.68325 2.88398 2.28325 2.28398C2.88325 1.68398 3.58881 1.20887 4.39992 0.858652C5.21103 0.508874 6.0777 0.333984 6.99992 0.333984C7.92214 0.333984 8.78881 0.508874 9.59992 0.858652C10.411 1.20887 11.1166 1.68398 11.7166 2.28398C12.3166 2.88398 12.7915 3.58954 13.1413 4.40065C13.4915 5.21176 13.6666 6.07843 13.6666 7.00065C13.6666 7.92287 13.4915 8.78954 13.1413 9.60065C12.7915 10.4118 12.3166 11.1173 11.7166 11.7173C11.1166 12.3173 10.411 12.7922 9.59992 13.142C8.78881 13.4922 7.92214 13.6673 6.99992 13.6673Z" fill="#00A791"/>
</svg>
