<svg width="16" height="16" viewBox="0 0 16 16" fill="none" xmlns="http://www.w3.org/2000/svg">
<path d="M6.99999 13H4.49999C4.00371 12.9994 3.51324 12.8932 3.06112 12.6886C2.60899 12.484 2.20556 12.1855 1.87758 11.8131C1.5496 11.4406 1.30458 11.0027 1.15877 10.5283C1.01297 10.0539 0.969706 9.55398 1.03187 9.06162C1.09403 8.56925 1.26018 8.09573 1.51931 7.67248C1.77844 7.24923 2.12462 6.88592 2.53487 6.60667C2.94513 6.32742 3.41008 6.13861 3.89887 6.05276C4.38767 5.96692 4.88913 5.986 5.36999 6.10875" stroke="#4E008E" stroke-width="1.5" stroke-linecap="round" stroke-linejoin="round"/>
<path d="M7.5 10L9.5 8L11.5 10" stroke="#4E008E" stroke-width="1.5" stroke-linecap="round" stroke-linejoin="round"/>
<path d="M9.5 13V8" stroke="#4E008E" stroke-width="1.5" stroke-linecap="round" stroke-linejoin="round"/>
<path d="M5 8.00078C5.00021 7.09938 5.2441 6.2148 5.70585 5.44065C6.1676 4.6665 6.83004 4.03158 7.62307 3.60307C8.4161 3.17455 9.31023 2.96839 10.2108 3.0064C11.1114 3.04441 11.985 3.32517 12.7391 3.81898C13.4932 4.31278 14.0998 5.00126 14.4947 5.81156C14.8896 6.62187 15.0581 7.52385 14.9823 8.42206C14.9066 9.32027 14.5894 10.1813 14.0644 10.914C13.5395 11.6468 12.8261 12.224 12 12.5845" stroke="#4E008E" stroke-width="1.5" stroke-linecap="round" stroke-linejoin="round"/>
</svg>
