<svg width="24" height="25" viewBox="0 0 24 25" fill="none" xmlns="http://www.w3.org/2000/svg">
<path d="M1.5 20.75H8.625C9.58918 20.75 10.5317 20.4641 11.3334 19.9284C12.1351 19.3927 12.7599 18.6314 13.1289 17.7406C13.4979 16.8498 13.5944 15.8696 13.4063 14.9239C13.2182 13.9783 12.7539 13.1096 12.0721 12.4279C11.3904 11.7461 10.5217 11.2818 9.57607 11.0937C8.63041 10.9056 7.65021 11.0021 6.75942 11.3711C5.86863 11.7401 5.10726 12.3649 4.57159 13.1666C4.03591 13.9683 3.75 14.9108 3.75 15.875C3.75 19.25 1.5 20.75 1.5 20.75Z" stroke="#FCFCFC" stroke-width="1.5" stroke-linecap="round" stroke-linejoin="round"/>
<path d="M10.5386 11.39C12.3376 8.96469 16.8245 3.5 21.0001 3.5C21.0001 7.67563 15.5354 12.1625 13.1101 13.9616" stroke="#FCFCFC" stroke-width="1.5" stroke-linecap="round" stroke-linejoin="round"/>
<path d="M12.4688 8.99805C13.7425 9.71115 14.7941 10.7628 15.5072 12.0365" stroke="#FCFCFC" stroke-width="1.5" stroke-linecap="round" stroke-linejoin="round"/>
</svg>
