<svg width="16" height="16" viewBox="0 0 16 16" fill="none" xmlns="http://www.w3.org/2000/svg">
<path d="M1 13.5H5.75C6.39279 13.5 7.02114 13.3094 7.5556 12.9523C8.09006 12.5952 8.50662 12.0876 8.75261 11.4937C8.99859 10.8999 9.06295 10.2464 8.93755 9.61596C8.81215 8.98552 8.50262 8.40642 8.0481 7.9519C7.59358 7.49738 7.01448 7.18785 6.38404 7.06245C5.75361 6.93705 5.10014 7.00141 4.50628 7.24739C3.91242 7.49338 3.40484 7.90994 3.04772 8.4444C2.69061 8.97886 2.5 9.60721 2.5 10.25C2.5 12.5 1 13.5 1 13.5Z" stroke="#4E008E" stroke-width="1.5" stroke-linecap="round" stroke-linejoin="round"/>
<path d="M7.02539 7.26C8.22477 5.64313 11.216 2 13.9998 2C13.9998 4.78375 10.3566 7.775 8.73977 8.97437" stroke="#4E008E" stroke-width="1.5" stroke-linecap="round" stroke-linejoin="round"/>
<path d="M8.3125 5.66406C9.16165 6.13947 9.86272 6.84054 10.3381 7.68969" stroke="#4E008E" stroke-width="1.5" stroke-linecap="round" stroke-linejoin="round"/>
</svg>
