<svg width="16" height="16" viewBox="0 0 16 16" fill="none" xmlns="http://www.w3.org/2000/svg">
<path d="M8 12.0003C8 11.6025 8.15803 11.2209 8.43934 10.9396C8.72064 10.6583 9.10217 10.5003 9.5 10.5003H12.3881C12.7279 10.5004 13.0576 10.3851 13.3233 10.1733C13.589 9.96156 13.7749 9.66588 13.8506 9.33468C13.9539 8.87993 14.004 8.41473 14 7.94843C13.9719 4.64718 11.24 1.96718 7.9375 2.0003C6.35706 2.01677 4.84694 2.65617 3.7352 3.77961C2.62347 4.90305 1.99991 6.41978 2 8.0003C2 10.6134 3.67062 12.5903 6 13.4134C6.22616 13.4934 6.4682 13.5179 6.70581 13.485C6.94342 13.4521 7.16967 13.3627 7.36558 13.2243C7.56149 13.0859 7.72135 12.9025 7.83174 12.6895C7.94212 12.4765 7.99983 12.2402 8 12.0003Z" stroke="#4E008E" stroke-width="1.5" stroke-linecap="round" stroke-linejoin="round"/>
<path d="M8 5.5C8.41421 5.5 8.75 5.16421 8.75 4.75C8.75 4.33579 8.41421 4 8 4C7.58579 4 7.25 4.33579 7.25 4.75C7.25 5.16421 7.58579 5.5 8 5.5Z" fill="#FBB041"/>
<path d="M5.25 7C5.66421 7 6 6.66421 6 6.25C6 5.83579 5.66421 5.5 5.25 5.5C4.83579 5.5 4.5 5.83579 4.5 6.25C4.5 6.66421 4.83579 7 5.25 7Z" fill="#FBB041"/>
<path d="M5.25 10.5C5.66421 10.5 6 10.1642 6 9.75C6 9.33579 5.66421 9 5.25 9C4.83579 9 4.5 9.33579 4.5 9.75C4.5 10.1642 4.83579 10.5 5.25 10.5Z" fill="#FBB041"/>
<path d="M10.75 7C11.1642 7 11.5 6.66421 11.5 6.25C11.5 5.83579 11.1642 5.5 10.75 5.5C10.3358 5.5 10 5.83579 10 6.25C10 6.66421 10.3358 7 10.75 7Z" fill="#FBB041"/>
</svg>
