<svg width="20" height="20" viewBox="0 0 20 20" fill="none" xmlns="http://www.w3.org/2000/svg">
<path d="M16.25 3.125H3.75C3.40482 3.125 3.125 3.40482 3.125 3.75V16.25C3.125 16.5952 3.40482 16.875 3.75 16.875H16.25C16.5952 16.875 16.875 16.5952 16.875 16.25V3.75C16.875 3.40482 16.5952 3.125 16.25 3.125Z" stroke="#9B9AA5" stroke-width="1.5" stroke-linecap="round" stroke-linejoin="round"/>
<path d="M13.75 1.875V4.375" stroke="#9B9AA5" stroke-width="1.5" stroke-linecap="round" stroke-linejoin="round"/>
<path d="M6.25 1.875V4.375" stroke="#9B9AA5" stroke-width="1.5" stroke-linecap="round" stroke-linejoin="round"/>
<path d="M3.125 6.875H16.875" stroke="#9B9AA5" stroke-width="1.5" stroke-linecap="round" stroke-linejoin="round"/>
<path d="M10 10.125C10.1036 10.125 10.1875 10.2089 10.1875 10.3125C10.1875 10.4161 10.1036 10.5 10 10.5C9.89645 10.5 9.8125 10.4161 9.8125 10.3125C9.8125 10.2089 9.89645 10.125 10 10.125Z" fill="#9B9AA5" stroke="#9B9AA5" stroke-width="1.5"/>
<path d="M13.4375 10.125C13.5411 10.125 13.625 10.2089 13.625 10.3125C13.625 10.4161 13.5411 10.5 13.4375 10.5C13.3339 10.5 13.25 10.4161 13.25 10.3125C13.25 10.2089 13.3339 10.125 13.4375 10.125Z" fill="#9B9AA5" stroke="#9B9AA5" stroke-width="1.5"/>
<path d="M6.5625 13.25C6.66605 13.25 6.75 13.3339 6.75 13.4375C6.75 13.5411 6.66605 13.625 6.5625 13.625C6.45895 13.625 6.375 13.5411 6.375 13.4375C6.375 13.3339 6.45895 13.25 6.5625 13.25Z" fill="#9B9AA5" stroke="#9B9AA5" stroke-width="1.5"/>
<path d="M10 13.25C10.1036 13.25 10.1875 13.3339 10.1875 13.4375C10.1875 13.5411 10.1036 13.625 10 13.625C9.89645 13.625 9.8125 13.5411 9.8125 13.4375C9.8125 13.3339 9.89645 13.25 10 13.25Z" fill="#9B9AA5" stroke="#9B9AA5" stroke-width="1.5"/>
<path d="M13.4375 13.25C13.5411 13.25 13.625 13.3339 13.625 13.4375C13.625 13.5411 13.5411 13.625 13.4375 13.625C13.3339 13.625 13.25 13.5411 13.25 13.4375C13.25 13.3339 13.3339 13.25 13.4375 13.25Z" fill="#9B9AA5" stroke="#9B9AA5" stroke-width="1.5"/>
</svg>
