<svg width="24" height="24" viewBox="0 0 24 24" fill="none" xmlns="http://www.w3.org/2000/svg">

<path d="M19.5 3.75H4.5C4.08579 3.75 3.75 4.08579 3.75 4.5V19.5C3.75 19.9142 4.08579 20.25 4.5 20.25H19.5C19.9142 20.25 20.25 19.9142 20.25 19.5V4.5C20.25 4.08579 19.9142 3.75 19.5 3.75Z" stroke="#4E008E" stroke-width="1.5" stroke-linecap="round" stroke-linejoin="round"/>

<path d="M16.5 2.25V5.25" stroke="#4E008E" stroke-width="1.5" stroke-linecap="round" stroke-linejoin="round"/>

<path d="M7.5 2.25V5.25" stroke="#4E008E" stroke-width="1.5" stroke-linecap="round" stroke-linejoin="round"/>
<path d="M3.75 8.25H20.25" stroke="#4E008E" stroke-width="1.5" stroke-linecap="round" stroke-linejoin="round"/>
<path d="M12.375 12.375C12.375 12.5821 12.2071 12.75 12 12.75C11.7929 12.75 11.625 12.5821 11.625 12.375C11.625 12.1679 11.7929 12 12 12C12.2071 12 12.375 12.1679 12.375 12.375Z" fill="black" stroke="#4E008E" stroke-width="1.5"/>
<path d="M16.5 12.375C16.5 12.5821 16.3321 12.75 16.125 12.75C15.9179 12.75 15.75 12.5821 15.75 12.375C15.75 12.1679 15.9179 12 16.125 12C16.3321 12 16.5 12.1679 16.5 12.375Z" fill="black" stroke="#4E008E" stroke-width="1.5"/>
<path d="M8.25 16.125C8.25 16.3321 8.08211 16.5 7.875 16.5C7.66789 16.5 7.5 16.3321 7.5 16.125C7.5 15.9179 7.66789 15.75 7.875 15.75C8.08211 15.75 8.25 15.9179 8.25 16.125Z" fill="black" stroke="#4E008E" stroke-width="1.5"/>
<path d="M12.375 16.125C12.375 16.3321 12.2071 16.5 12 16.5C11.7929 16.5 11.625 16.3321 11.625 16.125C11.625 15.9179 11.7929 15.75 12 15.75C12.2071 15.75 12.375 15.9179 12.375 16.125Z" fill="black" stroke="#4E008E" stroke-width="1.5"/>
<path d="M16.5 16.125C16.5 16.3321 16.3321 16.5 16.125 16.5C15.9179 16.5 15.75 16.3321 15.75 16.125C15.75 15.9179 15.9179 15.75 16.125 15.75C16.3321 15.75 16.5 15.9179 16.5 16.125Z" fill="black" stroke="#4E008E" stroke-width="1.5"/>
</svg>
