<svg width="16" height="16" viewBox="0 0 16 16" fill="none" xmlns="http://www.w3.org/2000/svg">
<path d="M13 2.5H3C2.72386 2.5 2.5 2.72386 2.5 3V13C2.5 13.2761 2.72386 13.5 3 13.5H13C13.2761 13.5 13.5 13.2761 13.5 13V3C13.5 2.72386 13.2761 2.5 13 2.5Z" stroke="#FCFCFC" stroke-width="1.5" stroke-linecap="round" stroke-linejoin="round"/>
<path d="M11 1.5V3.5" stroke="#FCFCFC" stroke-width="1.5" stroke-linecap="round" stroke-linejoin="round"/>
<path d="M5 1.5V3.5" stroke="#FCFCFC" stroke-width="1.5" stroke-linecap="round" stroke-linejoin="round"/>
<path d="M2.5 5.5H13.5" stroke="#FCFCFC" stroke-width="1.5" stroke-linecap="round" stroke-linejoin="round"/>
<mask id="path-5-inside-1_1983_30014" fill="white">
<path d="M8 9C8.41421 9 8.75 8.66421 8.75 8.25C8.75 7.83579 8.41421 7.5 8 7.5C7.58579 7.5 7.25 7.83579 7.25 8.25C7.25 8.66421 7.58579 9 8 9Z"/>
</mask>
<path d="M8 9C8.41421 9 8.75 8.66421 8.75 8.25C8.75 7.83579 8.41421 7.5 8 7.5C7.58579 7.5 7.25 7.83579 7.25 8.25C7.25 8.66421 7.58579 9 8 9Z" fill="#FCFCFC"/>
<path d="M7.25 8.25C7.25 7.83579 7.58579 7.5 8 7.5V10.5C9.24264 10.5 10.25 9.49264 10.25 8.25H7.25ZM8 7.5C8.41421 7.5 8.75 7.83579 8.75 8.25H5.75C5.75 9.49264 6.75736 10.5 8 10.5V7.5ZM8.75 8.25C8.75 8.66421 8.41421 9 8 9V6C6.75736 6 5.75 7.00736 5.75 8.25H8.75ZM8 9C7.58579 9 7.25 8.66421 7.25 8.25H10.25C10.25 7.00736 9.24264 6 8 6V9Z" fill="#FCFCFC" mask="url(#path-5-inside-1_1983_30014)"/>
<mask id="path-7-inside-2_1983_30014" fill="white">
<path d="M10.75 9C11.1642 9 11.5 8.66421 11.5 8.25C11.5 7.83579 11.1642 7.5 10.75 7.5C10.3358 7.5 10 7.83579 10 8.25C10 8.66421 10.3358 9 10.75 9Z"/>
</mask>
<path d="M10.75 9C11.1642 9 11.5 8.66421 11.5 8.25C11.5 7.83579 11.1642 7.5 10.75 7.5C10.3358 7.5 10 7.83579 10 8.25C10 8.66421 10.3358 9 10.75 9Z" fill="#FCFCFC"/>
<path d="M10 8.25C10 7.83579 10.3358 7.5 10.75 7.5V10.5C11.9926 10.5 13 9.49264 13 8.25H10ZM10.75 7.5C11.1642 7.5 11.5 7.83579 11.5 8.25H8.5C8.5 9.49264 9.50736 10.5 10.75 10.5V7.5ZM11.5 8.25C11.5 8.66421 11.1642 9 10.75 9V6C9.50736 6 8.5 7.00736 8.5 8.25H11.5ZM10.75 9C10.3358 9 10 8.66421 10 8.25H13C13 7.00736 11.9926 6 10.75 6V9Z" fill="#FCFCFC" mask="url(#path-7-inside-2_1983_30014)"/>
<mask id="path-9-inside-3_1983_30014" fill="white">
<path d="M5.25 11.5C5.66421 11.5 6 11.1642 6 10.75C6 10.3358 5.66421 10 5.25 10C4.83579 10 4.5 10.3358 4.5 10.75C4.5 11.1642 4.83579 11.5 5.25 11.5Z"/>
</mask>
<path d="M5.25 11.5C5.66421 11.5 6 11.1642 6 10.75C6 10.3358 5.66421 10 5.25 10C4.83579 10 4.5 10.3358 4.5 10.75C4.5 11.1642 4.83579 11.5 5.25 11.5Z" fill="#FCFCFC"/>
<path d="M4.5 10.75C4.5 10.3358 4.83579 10 5.25 10V13C6.49264 13 7.5 11.9926 7.5 10.75H4.5ZM5.25 10C5.66421 10 6 10.3358 6 10.75H3C3 11.9926 4.00736 13 5.25 13V10ZM6 10.75C6 11.1642 5.66421 11.5 5.25 11.5V8.5C4.00736 8.5 3 9.50736 3 10.75H6ZM5.25 11.5C4.83579 11.5 4.5 11.1642 4.5 10.75H7.5C7.5 9.50736 6.49264 8.5 5.25 8.5V11.5Z" fill="#FCFCFC" mask="url(#path-9-inside-3_1983_30014)"/>
<mask id="path-11-inside-4_1983_30014" fill="white">
<path d="M8 11.5C8.41421 11.5 8.75 11.1642 8.75 10.75C8.75 10.3358 8.41421 10 8 10C7.58579 10 7.25 10.3358 7.25 10.75C7.25 11.1642 7.58579 11.5 8 11.5Z"/>
</mask>
<path d="M8 11.5C8.41421 11.5 8.75 11.1642 8.75 10.75C8.75 10.3358 8.41421 10 8 10C7.58579 10 7.25 10.3358 7.25 10.75C7.25 11.1642 7.58579 11.5 8 11.5Z" fill="#FCFCFC"/>
<path d="M7.25 10.75C7.25 10.3358 7.58579 10 8 10V13C9.24264 13 10.25 11.9926 10.25 10.75H7.25ZM8 10C8.41421 10 8.75 10.3358 8.75 10.75H5.75C5.75 11.9926 6.75736 13 8 13V10ZM8.75 10.75C8.75 11.1642 8.41421 11.5 8 11.5V8.5C6.75736 8.5 5.75 9.50736 5.75 10.75H8.75ZM8 11.5C7.58579 11.5 7.25 11.1642 7.25 10.75H10.25C10.25 9.50736 9.24264 8.5 8 8.5V11.5Z" fill="#FCFCFC" mask="url(#path-11-inside-4_1983_30014)"/>
<mask id="path-13-inside-5_1983_30014" fill="white">
<path d="M10.75 11.5C11.1642 11.5 11.5 11.1642 11.5 10.75C11.5 10.3358 11.1642 10 10.75 10C10.3358 10 10 10.3358 10 10.75C10 11.1642 10.3358 11.5 10.75 11.5Z"/>
</mask>
<path d="M10.75 11.5C11.1642 11.5 11.5 11.1642 11.5 10.75C11.5 10.3358 11.1642 10 10.75 10C10.3358 10 10 10.3358 10 10.75C10 11.1642 10.3358 11.5 10.75 11.5Z" fill="#FCFCFC"/>
<path d="M10 10.75C10 10.3358 10.3358 10 10.75 10V13C11.9926 13 13 11.9926 13 10.75H10ZM10.75 10C11.1642 10 11.5 10.3358 11.5 10.75H8.5C8.5 11.9926 9.50736 13 10.75 13V10ZM11.5 10.75C11.5 11.1642 11.1642 11.5 10.75 11.5V8.5C9.50736 8.5 8.5 9.50736 8.5 10.75H11.5ZM10.75 11.5C10.3358 11.5 10 11.1642 10 10.75H13C13 9.50736 11.9926 8.5 10.75 8.5V11.5Z" fill="#FCFCFC" mask="url(#path-13-inside-5_1983_30014)"/>
</svg>
