<svg width="16" height="16" viewBox="0 0 16 16" fill="none" xmlns="http://www.w3.org/2000/svg">
<path d="M7.06671 9.1987L5.61671 7.7487C5.49449 7.62648 5.34449 7.56537 5.16671 7.56537C4.98893 7.56537 4.83337 7.63203 4.70004 7.76537C4.57782 7.88759 4.51671 8.04314 4.51671 8.23203C4.51671 8.42092 4.57782 8.57648 4.70004 8.6987L6.60004 10.5987C6.72226 10.7209 6.87782 10.782 7.06671 10.782C7.2556 10.782 7.41115 10.7209 7.53337 10.5987L11.3167 6.81537C11.4389 6.69314 11.5 6.54314 11.5 6.36536C11.5 6.18759 11.4334 6.03203 11.3 5.8987C11.1778 5.77648 11.0223 5.71537 10.8334 5.71537C10.6445 5.71537 10.4889 5.77648 10.3667 5.8987L7.06671 9.1987ZM8.00004 14.6654C7.07782 14.6654 6.21115 14.4903 5.40004 14.14C4.58893 13.7903 3.88337 13.3154 3.28337 12.7154C2.68337 12.1154 2.20849 11.4098 1.85871 10.5987C1.50849 9.78759 1.33337 8.92092 1.33337 7.9987C1.33337 7.07648 1.50849 6.20981 1.85871 5.3987C2.20849 4.58759 2.68337 3.88203 3.28337 3.28203C3.88337 2.68203 4.58893 2.20692 5.40004 1.8567C6.21115 1.50692 7.07782 1.33203 8.00004 1.33203C8.92226 1.33203 9.78893 1.50692 10.6 1.8567C11.4112 2.20692 12.1167 2.68203 12.7167 3.28203C13.3167 3.88203 13.7916 4.58759 14.1414 5.3987C14.4916 6.20981 14.6667 7.07648 14.6667 7.9987C14.6667 8.92092 14.4916 9.78759 14.1414 10.5987C13.7916 11.4098 13.3167 12.1154 12.7167 12.7154C12.1167 13.3154 11.4112 13.7903 10.6 14.14C9.78893 14.4903 8.92226 14.6654 8.00004 14.6654Z" fill="#00A791"/>
</svg>
