<svg width="24" height="24" viewBox="0 0 24 24" fill="none" xmlns="http://www.w3.org/2000/svg">
<path d="M22.8075 6.39829L20.5575 4.18954C20.2763 3.90931 19.8956 3.75195 19.4986 3.75195C19.1016 3.75195 18.7208 3.90931 18.4397 4.18954L9.75 12.7724L6.31031 9.43485C6.02857 9.15553 5.64764 8.9992 5.25091 9.00007C4.85417 9.00095 4.47394 9.15897 4.19344 9.43954L1.94344 11.6895C1.66263 11.9708 1.50491 12.352 1.50491 12.7494C1.50491 13.1468 1.66263 13.528 1.94344 13.8092L8.65781 20.5592C8.7971 20.6986 8.96248 20.8091 9.14449 20.8845C9.3265 20.9599 9.52158 20.9987 9.71859 20.9987C9.91561 20.9987 10.1107 20.9599 10.2927 20.8845C10.4747 20.8091 10.6401 20.6986 10.7794 20.5592L22.8122 8.5236C22.9518 8.38394 23.0624 8.21808 23.1377 8.03556C23.2131 7.85303 23.2516 7.65743 23.2512 7.45997C23.2507 7.26252 23.2113 7.06709 23.1352 6.8849C23.0591 6.70271 22.9477 6.53734 22.8075 6.39829ZM9.71438 19.5008L3 12.7508L5.25 10.5008C5.25273 10.503 5.25524 10.5056 5.2575 10.5083L9.22781 14.3605C9.36797 14.4976 9.55626 14.5744 9.75234 14.5744C9.94843 14.5744 10.1367 14.4976 10.2769 14.3605L19.5056 5.25079L21.75 7.46329L9.71438 19.5008Z" fill="#4E008E"/>
</svg>
