<svg width="40" height="40" viewBox="0 0 40 40" fill="none" xmlns="http://www.w3.org/2000/svg">
<path d="M17.6666 22.9987L14.0416 19.3737C13.736 19.0681 13.361 18.9154 12.9166 18.9154C12.4721 18.9154 12.0833 19.082 11.7499 19.4154C11.4444 19.7209 11.2916 20.1098 11.2916 20.582C11.2916 21.0543 11.4444 21.4431 11.7499 21.7487L16.4999 26.4987C16.8055 26.8043 17.1944 26.957 17.6666 26.957C18.1388 26.957 18.5277 26.8043 18.8333 26.4987L28.2916 17.0404C28.5971 16.7348 28.7499 16.3598 28.7499 15.9154C28.7499 15.4709 28.5833 15.082 28.2499 14.7487C27.9444 14.4431 27.5555 14.2904 27.0833 14.2904C26.611 14.2904 26.2221 14.4431 25.9166 14.7487L17.6666 22.9987ZM19.9999 36.6654C17.6944 36.6654 15.5277 36.2276 13.4999 35.352C11.4721 34.4776 9.70825 33.2904 8.20825 31.7904C6.70825 30.2904 5.52103 28.5265 4.64659 26.4987C3.77103 24.4709 3.33325 22.3043 3.33325 19.9987C3.33325 17.6931 3.77103 15.5265 4.64659 13.4987C5.52103 11.4709 6.70825 9.70703 8.20825 8.20703C9.70825 6.70703 11.4721 5.51925 13.4999 4.6437C15.5277 3.76925 17.6944 3.33203 19.9999 3.33203C22.3055 3.33203 24.4721 3.76925 26.4999 4.6437C28.5277 5.51925 30.2916 6.70703 31.7916 8.20703C33.2916 9.70703 34.4788 11.4709 35.3533 13.4987C36.2288 15.5265 36.6666 17.6931 36.6666 19.9987C36.6666 22.3043 36.2288 24.4709 35.3533 26.4987C34.4788 28.5265 33.2916 30.2904 31.7916 31.7904C30.2916 33.2904 28.5277 34.4776 26.4999 35.352C24.4721 36.2276 22.3055 36.6654 19.9999 36.6654Z" fill="#2CAE44"/>
</svg>
