<svg width="24" height="24" viewBox="0 0 24 24" fill="none" xmlns="http://www.w3.org/2000/svg">
<g clip-path="url(#clip0_1983_17220)">
<path d="M10.5004 19.5H6.75036C6.00595 19.4991 5.27024 19.3399 4.59206 19.0329C3.91387 18.726 3.30872 18.2783 2.81675 17.7196C2.32479 17.1609 1.95725 16.504 1.73854 15.7925C1.51983 15.0809 1.45494 14.331 1.54818 13.5924C1.64142 12.8539 1.89066 12.1436 2.27935 11.5087C2.66805 10.8738 3.18731 10.3289 3.80269 9.91001C4.41807 9.49113 5.1155 9.20791 5.84869 9.07914C6.58188 8.95037 7.33408 8.979 8.05536 9.16312" stroke="#4E008E" stroke-width="1.5" stroke-linecap="round" stroke-linejoin="round"/>
<path d="M11.25 15L14.25 12L17.25 15" stroke="#FBB041" stroke-width="1.5" stroke-linecap="round" stroke-linejoin="round"/>
<path d="M14.25 19.5V12" stroke="#4E008E" stroke-width="1.5" stroke-linecap="round" stroke-linejoin="round"/>
<path d="M7.5 12.0002C7.50032 10.6481 7.86615 9.32123 8.55877 8.16C9.2514 6.99878 10.2451 6.04639 11.4346 5.40362C12.6242 4.76085 13.9653 4.45161 15.3162 4.50862C16.6671 4.56564 17.9775 4.98678 19.1087 5.72749C20.2398 6.46819 21.1497 7.50092 21.742 8.71637C22.3344 9.93182 22.5871 11.2848 22.4735 12.6321C22.3599 13.9794 21.8842 15.271 21.0967 16.3701C20.3092 17.4692 19.2392 18.335 18 18.8758" stroke="#4E008E" stroke-width="1.5" stroke-linecap="round" stroke-linejoin="round"/>
</g>
<defs>
<clipPath id="clip0_1983_17220">
<rect width="24" height="24" fill="white"/>
</clipPath>
</defs>
</svg>
