<svg width="18" height="18" viewBox="0 0 18 18" fill="none" xmlns="http://www.w3.org/2000/svg">
<path d="M1.4956 17.0659L5.49475 16.9835L15.7319 6.27028C15.988 6.0023 16.1885 5.6863 16.3221 5.34031C16.4557 4.99433 16.5197 4.62514 16.5105 4.25382C16.5013 3.8825 16.419 3.51632 16.2684 3.1762C16.1177 2.83607 15.9017 2.52866 15.6326 2.27151C15.3635 2.01436 15.0466 1.81251 14.7 1.67748C14.3533 1.54246 13.9838 1.4769 13.6125 1.48456C13.2411 1.49221 12.8752 1.57293 12.5356 1.7221C12.1961 1.87127 11.8895 2.08597 11.6334 2.35395L1.39631 13.0671L1.4956 17.0659Z" stroke="#FCFCFC" stroke-width="1.5" stroke-linecap="round" stroke-linejoin="round"/>
</svg>
