<svg width="24" height="25" viewBox="0 0 24 25" fill="none" xmlns="http://www.w3.org/2000/svg">
<g clip-path="url(#clip0_4160_25662)">
<path d="M23.5 1V24H0.5V1H23.5Z" fill="#373239" stroke="#373239"/>
<path d="M15 8.5H15.01" stroke="#FCFCFC" stroke-width="1.5" stroke-linecap="round" stroke-linejoin="round"/>
<path d="M11 20.5H7C6.20435 20.5 5.44129 20.1839 4.87868 19.6213C4.31607 19.0587 4 18.2956 4 17.5V7.5C4 6.70435 4.31607 5.94129 4.87868 5.37868C5.44129 4.81607 6.20435 4.5 7 4.5H17C17.7956 4.5 18.5587 4.81607 19.1213 5.37868C19.6839 5.94129 20 6.70435 20 7.5V11.5" stroke="#FCFCFC" stroke-width="1.5" stroke-linecap="round" stroke-linejoin="round"/>
<path d="M4 15.4998L8 11.4998C8.928 10.6068 10.072 10.6068 11 11.4998L14 14.4998" stroke="#FCFCFC" stroke-width="1.5" stroke-linecap="round" stroke-linejoin="round"/>
<path d="M14 14.5003L15 13.5003C15.31 13.2023 15.644 13.0033 15.987 12.9043" stroke="#FCFCFC" stroke-width="1.5" stroke-linecap="round" stroke-linejoin="round"/>
<path d="M18.42 16.1092C18.615 15.9142 18.8465 15.7595 19.1013 15.654C19.3561 15.5485 19.6292 15.4941 19.905 15.4941C20.1808 15.4941 20.4539 15.5485 20.7087 15.654C20.9635 15.7595 21.195 15.9142 21.39 16.1092C21.585 16.3043 21.7397 16.5358 21.8452 16.7906C21.9508 17.0454 22.0051 17.3185 22.0051 17.5942C22.0051 17.87 21.9508 18.1431 21.8452 18.3979C21.7397 18.6527 21.585 18.8842 21.39 19.0792L18 22.4992H15V19.4992L18.42 16.1092Z" stroke="#FCFCFC" stroke-width="1.5" stroke-linecap="round" stroke-linejoin="round"/>
</g>
<defs>
<clipPath id="clip0_4160_25662">
<rect width="24" height="24" fill="white" transform="translate(0 0.5)"/>
</clipPath>
</defs>
</svg>
