<svg width="40" height="40" viewBox="0 0 40 40" fill="none" xmlns="http://www.w3.org/2000/svg">
<path d="M40 18.596C40 37.4186 29.3675 37.4186 18.9189 37.4186C8.47029 37.4186 0 28.9914 0 18.596C0 8.20053 8.47029 3 18.9189 3C29.3675 3 40 8.20053 40 18.596Z" fill="#E8DDF1"/>
<path d="M18 20C18 20.5304 18.2107 21.0391 18.5858 21.4142C18.9609 21.7893 19.4696 22 20 22C20.5304 22 21.0391 21.7893 21.4142 21.4142C21.7893 21.0391 22 20.5304 22 20C22 19.4696 21.7893 18.9609 21.4142 18.5858C21.0391 18.2107 20.5304 18 20 18C19.4696 18 18.9609 18.2107 18.5858 18.5858C18.2107 18.9609 18 19.4696 18 20Z" stroke="#2E2C30" stroke-width="1.5" stroke-linecap="round" stroke-linejoin="round"/>
<path d="M29 20C26.6 24 23.6 26 20 26C16.4 26 13.4 24 11 20C13.4 16 16.4 14 20 14C23.6 14 26.6 16 29 20Z" stroke="#2E2C30" stroke-width="1.5" stroke-linecap="round" stroke-linejoin="round"/>
</svg>
