<svg width="24" height="25" viewBox="0 0 24 25" fill="none" xmlns="http://www.w3.org/2000/svg">
<path d="M19.125 11C20.5747 11 21.75 9.82475 21.75 8.375C21.75 6.92525 20.5747 5.75 19.125 5.75C17.6753 5.75 16.5 6.92525 16.5 8.375C16.5 9.82475 17.6753 11 19.125 11Z" stroke="#FCFCFC" stroke-width="1.5" stroke-linecap="round" stroke-linejoin="round"/>
<path d="M4.5 20H1.5C1.30109 20 1.11032 19.921 0.96967 19.7803C0.829018 19.6397 0.75 19.4489 0.75 19.25V15.5C0.75 15.3011 0.829018 15.1103 0.96967 14.9697C1.11032 14.829 1.30109 14.75 1.5 14.75H4.5" stroke="#FCFCFC" stroke-width="1.5" stroke-linecap="round" stroke-linejoin="round"/>
<path d="M10.5 15.5H13.5L19.7812 14.0553C20.0122 13.992 20.2546 13.9829 20.4897 14.0285C20.7247 14.0741 20.9461 14.1734 21.1365 14.3185C21.327 14.4636 21.4814 14.6507 21.5878 14.8652C21.6942 15.0797 21.7497 15.3159 21.75 15.5553C21.7501 15.8444 21.6697 16.1279 21.5176 16.3738C21.3656 16.6197 21.148 16.8184 20.8894 16.9475L17.25 18.5L11.25 20H4.5V14.75L6.84375 12.4063C7.05324 12.1975 7.30182 12.0321 7.5753 11.9195C7.84877 11.8069 8.14175 11.7493 8.4375 11.75H13.125C13.6223 11.75 14.0992 11.9476 14.4508 12.2992C14.8025 12.6508 15 13.1277 15 13.625C15 14.1223 14.8025 14.5992 14.4508 14.9508C14.0992 15.3025 13.6223 15.5 13.125 15.5H10.5Z" stroke="#FCFCFC" stroke-width="1.5" stroke-linecap="round" stroke-linejoin="round"/>
<path d="M16.5002 8.49603C15.9908 8.73699 15.4173 8.80758 14.8646 8.69736C14.3119 8.58715 13.8093 8.30198 13.4313 7.88404C13.0532 7.46609 12.8197 6.93756 12.7652 6.37662C12.7108 5.81568 12.8383 5.25211 13.129 4.76926C13.4196 4.28642 13.8579 3.90993 14.3791 3.69549C14.9003 3.48105 15.4767 3.44005 16.023 3.57854C16.5693 3.71703 17.0565 4.02766 17.4126 4.46449C17.7687 4.90132 17.9747 5.44116 18.0002 6.00416" stroke="#FCFCFC" stroke-width="1.5" stroke-linecap="round" stroke-linejoin="round"/>
</svg>
