<svg width="16" height="16" viewBox="0 0 16 16" fill="none" xmlns="http://www.w3.org/2000/svg">
<path fill-rule="evenodd" clip-rule="evenodd" d="M3.38598 3.37935C5.91598 0.852681 10.0293 0.879348 12.5746 3.42535C15.1213 5.97201 15.148 10.0873 12.6173 12.6173C10.0866 15.1473 5.97198 15.1213 3.42532 12.5747C2.7089 11.8614 2.1676 10.9917 1.84395 10.0339C1.5203 9.07612 1.4231 8.05635 1.55998 7.05468C1.57793 6.92322 1.64736 6.80428 1.75301 6.72401C1.85865 6.64375 1.99186 6.60873 2.12332 6.62668C2.25477 6.64463 2.37372 6.71406 2.45399 6.81971C2.53425 6.92535 2.56926 7.05856 2.55132 7.19001C2.4351 8.03889 2.51737 8.90315 2.79164 9.71486C3.06591 10.5266 3.52471 11.2636 4.13198 11.868C6.29532 14.0307 9.77731 14.0433 11.9106 11.9107C14.0433 9.77735 14.0306 6.29535 11.868 4.13201C9.70598 1.97068 6.22598 1.95668 4.09265 4.08668L4.59132 4.08868C4.65698 4.08899 4.72193 4.10222 4.78248 4.12763C4.84302 4.15304 4.89797 4.19013 4.94419 4.23678C4.9904 4.28342 5.02697 4.33872 5.05181 4.3995C5.07666 4.46028 5.08929 4.52535 5.08898 4.59101C5.08868 4.65668 5.07544 4.72163 5.05003 4.78218C5.02462 4.84272 4.98753 4.89767 4.94089 4.94388C4.89424 4.9901 4.83895 5.02667 4.77817 5.05151C4.71739 5.07636 4.65231 5.08899 4.58665 5.08868L2.88932 5.08068C2.75752 5.07998 2.63132 5.02726 2.53819 4.934C2.44505 4.84074 2.39251 4.71448 2.39198 4.58268L2.38332 2.88668C2.38297 2.82102 2.39555 2.75593 2.42036 2.69514C2.44516 2.63434 2.48169 2.57902 2.52788 2.53235C2.57406 2.48567 2.62898 2.44855 2.68951 2.4231C2.75004 2.39764 2.81499 2.38436 2.88065 2.38401C2.94631 2.38366 3.0114 2.39625 3.07219 2.42105C3.13299 2.44586 3.18831 2.48239 3.23498 2.52858C3.28166 2.57476 3.31878 2.62968 3.34423 2.69021C3.36969 2.75074 3.38297 2.81569 3.38332 2.88135L3.38598 3.37935ZM7.99931 4.83268C8.13192 4.83268 8.2591 4.88536 8.35287 4.97913C8.44664 5.0729 8.49931 5.20007 8.49931 5.33268V7.79268L10.02 9.31268C10.0678 9.35878 10.1059 9.41394 10.1321 9.47493C10.1583 9.53592 10.1722 9.60152 10.1728 9.66791C10.1734 9.7343 10.1608 9.80014 10.1356 9.8616C10.1105 9.92306 10.0734 9.97891 10.0265 10.0259C9.97959 10.0728 9.92378 10.11 9.86234 10.1352C9.80091 10.1603 9.73507 10.173 9.66868 10.1725C9.6023 10.1719 9.53668 10.1582 9.47567 10.132C9.41465 10.1058 9.35946 10.0677 9.31332 10.02L7.49998 8.20668V5.33335C7.49998 5.20074 7.55266 5.07356 7.64643 4.97979C7.7402 4.88603 7.86737 4.83335 7.99998 4.83335" fill="#4E008E"/>
</svg>
