<svg width="16" height="16" viewBox="0 0 16 16" fill="none" xmlns="http://www.w3.org/2000/svg">
<path d="M13 2.5H3C2.72386 2.5 2.5 2.72386 2.5 3V13C2.5 13.2761 2.72386 13.5 3 13.5H13C13.2761 13.5 13.5 13.2761 13.5 13V3C13.5 2.72386 13.2761 2.5 13 2.5Z" stroke="#4E008E" stroke-width="1.5" stroke-linecap="round" stroke-linejoin="round"/>
<path d="M6 7C6.55228 7 7 6.55228 7 6C7 5.44772 6.55228 5 6 5C5.44772 5 5 5.44772 5 6C5 6.55228 5.44772 7 6 7Z" stroke="#FBB041" stroke-width="1.5" stroke-linecap="round" stroke-linejoin="round"/>
<path d="M3.54309 13.5004L10.3962 6.64664C10.4427 6.60015 10.4978 6.56328 10.5585 6.53811C10.6192 6.51295 10.6843 6.5 10.75 6.5C10.8157 6.5 10.8807 6.51295 10.9414 6.53811C11.0021 6.56328 11.0573 6.60015 11.1037 6.64664L13.5 9.04352" stroke="#4E008E" stroke-width="1.5" stroke-linecap="round" stroke-linejoin="round"/>
</svg>
