<svg width="16" height="16" viewBox="0 0 16 16" fill="none" xmlns="http://www.w3.org/2000/svg">
<path d="M9.33333 5.33268V3.99935C9.33333 3.64573 9.19286 3.30659 8.94281 3.05654C8.69276 2.80649 8.35362 2.66602 8 2.66602H3.33333C2.97971 2.66602 2.64057 2.80649 2.39052 3.05654C2.14048 3.30659 2 3.64573 2 3.99935V11.9993C2 12.353 2.14048 12.6921 2.39052 12.9422C2.64057 13.1922 2.97971 13.3327 3.33333 13.3327H8C8.35362 13.3327 8.69276 13.1922 8.94281 12.9422C9.19286 12.6921 9.33333 12.353 9.33333 11.9993V10.666M4.66667 7.99935H14M14 7.99935L12 5.99935M14 7.99935L12 9.99935" stroke="#4E008E" stroke-width="1.5" stroke-linecap="round" stroke-linejoin="round"/>
</svg>
