<svg width="24" height="24" viewBox="0 0 24 24" fill="none" xmlns="http://www.w3.org/2000/svg">
<path d="M15 7.5V18.8128C15.0001 18.9362 15.0306 19.0576 15.0888 19.1663C15.147 19.2751 15.2311 19.3678 15.3337 19.4363L16.365 20.1234C16.465 20.1901 16.5796 20.2318 16.6991 20.2449C16.8186 20.2581 16.9395 20.2423 17.0517 20.1989C17.1638 20.1555 17.2638 20.0858 17.3434 19.9957C17.4229 19.9055 17.4797 19.7976 17.5087 19.6809L18.75 15" stroke="#FCFCFC" stroke-width="1.5" stroke-linecap="round" stroke-linejoin="round"/>
<path d="M3.75 18.7499C3.75003 18.8927 3.79085 19.0325 3.86765 19.153C3.94446 19.2734 4.05405 19.3694 4.18354 19.4297C4.31304 19.4899 4.45705 19.512 4.59864 19.4932C4.74023 19.4744 4.87351 19.4156 4.98281 19.3236C9.89531 15.2024 15 14.9999 15 14.9999H18.75C19.7446 14.9999 20.6984 14.6048 21.4017 13.9015C22.1049 13.1983 22.5 12.2444 22.5 11.2499C22.5 10.2553 22.1049 9.30147 21.4017 8.59821C20.6984 7.89495 19.7446 7.49986 18.75 7.49986H15C15 7.49986 9.89531 7.29736 4.98281 3.17705C4.87357 3.08515 4.74038 3.02634 4.59887 3.00752C4.45737 2.9887 4.31343 3.01066 4.18397 3.07081C4.05451 3.13096 3.9449 3.22681 3.86803 3.3471C3.79116 3.46739 3.75021 3.60711 3.75 3.74986V18.7499Z" stroke="#FCFCFC" stroke-width="1.5" stroke-linecap="round" stroke-linejoin="round"/>
</svg>
