<svg width="32" height="32" viewBox="0 0 32 32" fill="none" xmlns="http://www.w3.org/2000/svg">
<g filter="url(#filter0_i_3341_53658)">
<rect width="32" height="32" rx="16" fill="#FCFCFC"/>
<rect x="0.5" y="0.5" width="31" height="31" rx="15.5" stroke="#CACACA"/>
<path d="M11.3333 15C10.6 15 10 15.6 10 16.3333C10 17.0667 10.6 17.6667 11.3333 17.6667C12.0667 17.6667 12.6667 17.0667 12.6667 16.3333C12.6667 15.6 12.0667 15 11.3333 15ZM20.6667 15C19.9333 15 19.3333 15.6 19.3333 16.3333C19.3333 17.0667 19.9333 17.6667 20.6667 17.6667C21.4 17.6667 22 17.0667 22 16.3333C22 15.6 21.4 15 20.6667 15ZM16 15C15.2667 15 14.6667 15.6 14.6667 16.3333C14.6667 17.0667 15.2667 17.6667 16 17.6667C16.7333 17.6667 17.3333 17.0667 17.3333 16.3333C17.3333 15.6 16.7333 15 16 15Z" fill="#605767"/>
</g>
<defs>
<filter id="filter0_i_3341_53658" x="0" y="0" width="32" height="32" filterUnits="userSpaceOnUse" color-interpolation-filters="sRGB">
<feFlood flood-opacity="0" result="BackgroundImageFix"/>
<feBlend mode="normal" in="SourceGraphic" in2="BackgroundImageFix" result="shape"/>
<feColorMatrix in="SourceAlpha" type="matrix" values="0 0 0 0 0 0 0 0 0 0 0 0 0 0 0 0 0 0 127 0" result="hardAlpha"/>
<feOffset dy="-3"/>
<feComposite in2="hardAlpha" operator="arithmetic" k2="-1" k3="1"/>
<feColorMatrix type="matrix" values="0 0 0 0 0 0 0 0 0 0 0 0 0 0 0 0 0 0 0.08 0"/>
<feBlend mode="normal" in2="shape" result="effect1_innerShadow_3341_53658"/>
</filter>
</defs>
</svg>
