<svg width="24" height="24" viewBox="0 0 24 24" fill="none" xmlns="http://www.w3.org/2000/svg">
<g clip-path="url(#clip0_3341_77171)">
<path d="M15 8H15.01" stroke="#4E008E" stroke-width="1.5" stroke-linecap="round" stroke-linejoin="round"/>
<path d="M11 20H7C6.20435 20 5.44129 19.6839 4.87868 19.1213C4.31607 18.5587 4 17.7956 4 17V7C4 6.20435 4.31607 5.44129 4.87868 4.87868C5.44129 4.31607 6.20435 4 7 4H17C17.7956 4 18.5587 4.31607 19.1213 4.87868C19.6839 5.44129 20 6.20435 20 7V11" stroke="#4E008E" stroke-width="1.5" stroke-linecap="round" stroke-linejoin="round"/>
<path d="M4 14.9998L8 10.9998C8.928 10.1068 10.072 10.1068 11 10.9998L14 13.9998" stroke="#4E008E" stroke-width="1.5" stroke-linecap="round" stroke-linejoin="round"/>
<path d="M14 14.0003L15 13.0003C15.31 12.7023 15.644 12.5033 15.987 12.4043" stroke="#4E008E" stroke-width="1.5" stroke-linecap="round" stroke-linejoin="round"/>
<path d="M18.42 15.6092C18.615 15.4142 18.8465 15.2595 19.1013 15.154C19.3561 15.0485 19.6292 14.9941 19.905 14.9941C20.1808 14.9941 20.4539 15.0485 20.7087 15.154C20.9635 15.2595 21.195 15.4142 21.39 15.6092C21.585 15.8043 21.7397 16.0358 21.8452 16.2906C21.9508 16.5454 22.0051 16.8185 22.0051 17.0942C22.0051 17.37 21.9508 17.6431 21.8452 17.8979C21.7397 18.1527 21.585 18.3842 21.39 18.5792L18 21.9992H15V18.9992L18.42 15.6092Z" stroke="#4E008E" stroke-width="1.5" stroke-linecap="round" stroke-linejoin="round"/>
</g>
<defs>
<clipPath id="clip0_3341_77171">
<rect width="24" height="24" fill="white"/>
</clipPath>
</defs>
</svg>
