<svg width="40" height="40" viewBox="0 0 40 40" fill="none" xmlns="http://www.w3.org/2000/svg">
<path d="M40 18.596C40 37.4186 29.3675 37.4186 18.9189 37.4186C8.47029 37.4186 0 28.9914 0 18.596C0 8.20053 8.47029 3 18.9189 3C29.3675 3 40 8.20053 40 18.596Z" fill="#E8DDF1"/>
<g clip-path="url(#clip0_1380_8493)">
<path d="M15 25.9992C13.7522 25.9992 12.5556 25.5251 11.6733 24.6812C10.7911 23.8373 10.2954 22.6927 10.2954 21.4992C10.2954 20.3057 10.7911 19.1612 11.6733 18.3172C12.5556 17.4733 13.7522 16.9992 15 16.9992C15.2946 15.6864 16.1567 14.5327 17.3965 13.7919C18.0104 13.4251 18.6986 13.1708 19.4217 13.0433C20.1449 12.9159 20.8888 12.9179 21.6111 13.0492C22.3333 13.1805 23.0198 13.4386 23.6312 13.8087C24.2427 14.1788 24.7672 14.6536 25.1747 15.2061C25.5823 15.7587 25.8649 16.378 26.0065 17.0288C26.1481 17.6796 26.1459 18.3492 26 18.9992H27C27.9282 18.9992 28.8185 19.368 29.4748 20.0243C30.1312 20.6807 30.5 21.571 30.5 22.4992C30.5 23.4275 30.1312 24.3177 29.4748 24.9741C28.8185 25.6305 27.9282 25.9992 27 25.9992H26" stroke="#2E2C30" stroke-width="1.5" stroke-linecap="round" stroke-linejoin="round"/>
<path d="M17 23L20 20L23 23" stroke="#2E2C30" stroke-width="1.5" stroke-linecap="round" stroke-linejoin="round"/>
<path d="M20 20V29" stroke="#2E2C30" stroke-width="1.5" stroke-linecap="round" stroke-linejoin="round"/>
</g>
<defs>
<clipPath id="clip0_1380_8493">
<rect width="24" height="24" fill="white" transform="translate(8 8)"/>
</clipPath>
</defs>
</svg>
