<svg width="32" height="32" viewBox="0 0 32 32" fill="none" xmlns="http://www.w3.org/2000/svg">
<path d="M0 16C0 7.16344 7.16344 0 16 0C24.8366 0 32 7.16344 32 16C32 24.8366 24.8366 32 16 32C7.16344 32 0 24.8366 0 16Z" fill="#4E008E"/>
<g clip-path="url(#clip0_1370_9662)">
<path d="M10 14.6667C10 15.2795 10.1207 15.8863 10.3552 16.4525C10.5898 17.0187 10.9335 17.5332 11.3668 17.9665C11.8002 18.3998 12.3146 18.7436 12.8808 18.9781C13.447 19.2126 14.0538 19.3333 14.6667 19.3333C15.2795 19.3333 15.8863 19.2126 16.4525 18.9781C17.0187 18.7436 17.5332 18.3998 17.9665 17.9665C18.3998 17.5332 18.7436 17.0187 18.9781 16.4525C19.2126 15.8863 19.3333 15.2795 19.3333 14.6667C19.3333 14.0538 19.2126 13.447 18.9781 12.8808C18.7436 12.3146 18.3998 11.8002 17.9665 11.3668C17.5332 10.9335 17.0187 10.5898 16.4525 10.3552C15.8863 10.1207 15.2795 10 14.6667 10C14.0538 10 13.447 10.1207 12.8808 10.3552C12.3146 10.5898 11.8002 10.9335 11.3668 11.3668C10.9335 11.8002 10.5898 12.3146 10.3552 12.8808C10.1207 13.447 10 14.0538 10 14.6667Z" stroke="#FCFCFC" stroke-width="1.5" stroke-linecap="round" stroke-linejoin="round"/>
<path d="M22 22L18 18" stroke="#FCFCFC" stroke-width="1.5" stroke-linecap="round" stroke-linejoin="round"/>
</g>
<defs>
<clipPath id="clip0_1370_9662">
<rect width="16" height="16" fill="white" transform="translate(8 8)"/>
</clipPath>
</defs>
</svg>
