<svg width="32" height="32" viewBox="0 0 32 32" fill="none" xmlns="http://www.w3.org/2000/svg">
<g filter="url(#filter0_i_1983_27319)">
<rect width="32" height="32" rx="16" fill="#FCFCFC"/>
<rect x="0.5" y="0.5" width="31" height="31" rx="15.5" stroke="#CACACA"/>
<path d="M12 18C13.1046 18 14 17.1046 14 16C14 14.8954 13.1046 14 12 14C10.8954 14 10 14.8954 10 16C10 17.1046 10.8954 18 12 18Z" stroke="#4E008E" stroke-width="1.5" stroke-linecap="round" stroke-linejoin="round"/>
<path d="M19 22.5C20.1046 22.5 21 21.6046 21 20.5C21 19.3954 20.1046 18.5 19 18.5C17.8954 18.5 17 19.3954 17 20.5C17 21.6046 17.8954 22.5 19 22.5Z" stroke="#4E008E" stroke-width="1.5" stroke-linecap="round" stroke-linejoin="round"/>
<path d="M19 13.5C20.1046 13.5 21 12.6046 21 11.5C21 10.3954 20.1046 9.5 19 9.5C17.8954 9.5 17 10.3954 17 11.5C17 12.6046 17.8954 13.5 19 13.5Z" stroke="#4E008E" stroke-width="1.5" stroke-linecap="round" stroke-linejoin="round"/>
<path d="M17.3179 12.5811L13.6816 14.9186" stroke="#4E008E" stroke-width="1.5" stroke-linecap="round" stroke-linejoin="round"/>
<path d="M13.6816 17.0811L17.3179 19.4186" stroke="#4E008E" stroke-width="1.5" stroke-linecap="round" stroke-linejoin="round"/>
</g>
<defs>
<filter id="filter0_i_1983_27319" x="0" y="0" width="32" height="32" filterUnits="userSpaceOnUse" color-interpolation-filters="sRGB">
<feFlood flood-opacity="0" result="BackgroundImageFix"/>
<feBlend mode="normal" in="SourceGraphic" in2="BackgroundImageFix" result="shape"/>
<feColorMatrix in="SourceAlpha" type="matrix" values="0 0 0 0 0 0 0 0 0 0 0 0 0 0 0 0 0 0 127 0" result="hardAlpha"/>
<feOffset dy="-3"/>
<feComposite in2="hardAlpha" operator="arithmetic" k2="-1" k3="1"/>
<feColorMatrix type="matrix" values="0 0 0 0 0 0 0 0 0 0 0 0 0 0 0 0 0 0 0.08 0"/>
<feBlend mode="normal" in2="shape" result="effect1_innerShadow_1983_27319"/>
</filter>
</defs>
</svg>
