<svg width="25" height="25" viewBox="0 0 25 25" fill="none" xmlns="http://www.w3.org/2000/svg">
<path d="M6.36424 15.366C8.02074 15.3319 9.33026 13.9614 9.28913 12.3051C9.24801 10.6488 7.87181 9.33371 6.21531 9.36786C4.5588 9.402 3.24928 10.7724 3.29041 12.4288C3.33154 14.0851 4.70774 15.4002 6.36424 15.366Z" stroke="#FCFCFC" stroke-width="1.5" stroke-linecap="round" stroke-linejoin="round"/>
<path d="M17.0295 21.8973C18.686 21.8631 19.9955 20.4927 19.9544 18.8364C19.9133 17.18 18.5371 15.865 16.8806 15.8991C15.2241 15.9333 13.9146 17.3037 13.9557 18.96C13.9968 20.6164 15.373 21.9314 17.0295 21.8973Z" stroke="#FCFCFC" stroke-width="1.5" stroke-linecap="round" stroke-linejoin="round"/>
<path d="M16.6944 8.40116C18.3509 8.36702 19.6605 6.9966 19.6193 5.34026C19.5782 3.68391 18.202 2.36886 16.5455 2.40301C14.889 2.43716 13.5795 3.80758 13.6206 5.46392C13.6617 7.12026 15.0379 8.43531 16.6944 8.40116Z" stroke="#FCFCFC" stroke-width="1.5" stroke-linecap="round" stroke-linejoin="round"/>
<path d="M14.1379 7.07508L8.77173 10.6927" stroke="#FCFCFC" stroke-width="1.5" stroke-linecap="round" stroke-linejoin="round"/>
<path d="M8.85229 13.9355L14.3925 17.3283" stroke="#FCFCFC" stroke-width="1.5" stroke-linecap="round" stroke-linejoin="round"/>
</svg>
