<svg width="40" height="40" viewBox="0 0 40 40" fill="none" xmlns="http://www.w3.org/2000/svg">
<path d="M40 18.596C40 37.4186 29.3675 37.4186 18.9189 37.4186C8.47029 37.4186 0 28.9914 0 18.596C0 8.20053 8.47029 3 18.9189 3C29.3675 3 40 8.20053 40 18.596Z" fill="#E8DDF1"/>
<path d="M28.25 12.5H11.75C11.3358 12.5 11 12.8358 11 13.25V26.75C11 27.1642 11.3358 27.5 11.75 27.5H28.25C28.6642 27.5 29 27.1642 29 26.75V13.25C29 12.8358 28.6642 12.5 28.25 12.5Z" stroke="#4E008E" stroke-width="1.5" stroke-linecap="round" stroke-linejoin="round"/>
<path d="M23.75 16.25C23.75 17.2446 23.3549 18.1984 22.6517 18.9017C21.9484 19.6049 20.9946 20 20 20C19.0054 20 18.0516 19.6049 17.3483 18.9017C16.6451 18.1984 16.25 17.2446 16.25 16.25" stroke="#FBB041" stroke-width="1.5" stroke-linecap="round" stroke-linejoin="round"/>
</svg>
