<svg width="12" height="12" viewBox="0 0 12 12" fill="none" xmlns="http://www.w3.org/2000/svg">
<path d="M5.35354 8.64664C5.40003 8.69308 5.43691 8.74822 5.46207 8.80892C5.48723 8.86962 5.50018 8.93468 5.50018 9.00039C5.50018 9.0661 5.48723 9.13116 5.46207 9.19186C5.43691 9.25256 5.40003 9.30771 5.35354 9.35414L3.35354 11.3541C3.3071 11.4006 3.25196 11.4375 3.19126 11.4627C3.13056 11.4878 3.0655 11.5008 2.99979 11.5008C2.93408 11.5008 2.86902 11.4878 2.80832 11.4627C2.74762 11.4375 2.69248 11.4006 2.64604 11.3541L0.64604 9.35414C0.599585 9.30769 0.562734 9.25254 0.537593 9.19184C0.512452 9.13114 0.499512 9.06609 0.499512 9.00039C0.499512 8.9347 0.512452 8.86964 0.537593 8.80894C0.562734 8.74825 0.599585 8.6931 0.64604 8.64664C0.73986 8.55282 0.867108 8.50011 0.99979 8.50011C1.06549 8.50011 1.13054 8.51305 1.19124 8.5382C1.25193 8.56334 1.30708 8.60019 1.35354 8.64664L2.49979 9.79352V1.00039C2.49979 0.867785 2.55247 0.740608 2.64624 0.64684C2.74 0.553072 2.86718 0.500393 2.99979 0.500393C3.1324 0.500393 3.25957 0.553072 3.35334 0.64684C3.44711 0.740608 3.49979 0.867785 3.49979 1.00039V9.79352L4.64604 8.64664C4.69248 8.60015 4.74762 8.56327 4.80832 8.53811C4.86902 8.51295 4.93408 8.5 4.99979 8.5C5.0655 8.5 5.13056 8.51295 5.19126 8.53811C5.25196 8.56327 5.3071 8.60015 5.35354 8.64664ZM11.3535 2.64664L9.35354 0.646643C9.3071 0.600155 9.25196 0.563276 9.19126 0.538114C9.13056 0.512951 9.0655 0.5 8.99979 0.5C8.93408 0.5 8.86902 0.512951 8.80832 0.538114C8.74762 0.563276 8.69248 0.600155 8.64604 0.646643L6.64604 2.64664C6.55222 2.74046 6.49951 2.86771 6.49951 3.00039C6.49951 3.13308 6.55222 3.26032 6.64604 3.35414C6.73986 3.44796 6.86711 3.50067 6.99979 3.50067C7.13247 3.50067 7.25972 3.44796 7.35354 3.35414L8.49979 2.20727V11.0004C8.49979 11.133 8.55247 11.2602 8.64624 11.3539C8.74 11.4477 8.86718 11.5004 8.99979 11.5004C9.1324 11.5004 9.25958 11.4477 9.35334 11.3539C9.44711 11.2602 9.49979 11.133 9.49979 11.0004V2.20727L10.646 3.35414C10.7399 3.44796 10.8671 3.50067 10.9998 3.50067C11.1325 3.50067 11.2597 3.44796 11.3535 3.35414C11.4474 3.26032 11.5001 3.13308 11.5001 3.00039C11.5001 2.86771 11.4474 2.74046 11.3535 2.64664Z" fill="#09090B"/>
</svg>
