<svg width="24" height="25" viewBox="0 0 24 25" fill="none" xmlns="http://www.w3.org/2000/svg">
<path d="M15 2L13.5 9.5L19.5 11.75L9 23L10.5 15.5L4.5 13.25L15 2Z" fill="#FBB041"/>
<path fill-rule="evenodd" clip-rule="evenodd" d="M15.3425 1.33277C15.6408 1.48586 15.8012 1.81834 15.7354 2.14711L14.3605 9.02172L19.7634 11.0478C19.9978 11.1357 20.1729 11.3349 20.2302 11.5786C20.2874 11.8224 20.2192 12.0787 20.0483 12.2618L9.5483 23.5118C9.31953 23.7569 8.95586 23.8204 8.65757 23.6673C8.35927 23.5142 8.19882 23.1817 8.26458 22.8529L9.6395 15.9783L4.23667 13.9523C4.0022 13.8643 3.82708 13.6652 3.76986 13.4214C3.71263 13.1776 3.78086 12.9214 3.95172 12.7383L14.4517 1.48829C14.6805 1.24318 15.0442 1.17968 15.3425 1.33277ZM5.81373 12.9417L10.7634 14.7978C11.1076 14.9269 11.3076 15.2866 11.2354 15.6471L10.2533 20.5581L18.1863 12.0584L13.2367 10.2023C12.8924 10.0732 12.6925 9.7135 12.7646 9.35294L13.7468 4.44198L5.81373 12.9417Z" fill="#FBB041"/>
</svg>
