<svg width="16" height="16" viewBox="0 0 16 16" fill="none" xmlns="http://www.w3.org/2000/svg">
<path d="M14 3.00078V6.00078C14 6.13339 13.9473 6.26056 13.8536 6.35433C13.7598 6.4481 13.6326 6.50078 13.5 6.50078H10.5C10.3674 6.50078 10.2402 6.4481 10.1464 6.35433C10.0527 6.26056 10 6.13339 10 6.00078C10 5.86817 10.0527 5.74099 10.1464 5.64722C10.2402 5.55346 10.3674 5.50078 10.5 5.50078H12.2931L11.3787 4.5864C10.4495 3.65291 9.1878 3.12625 7.87063 3.12203H7.8425C6.53636 3.11897 5.28151 3.6302 4.34937 4.54515C4.25389 4.63429 4.12731 4.68252 3.99672 4.67953C3.86612 4.67653 3.74189 4.62255 3.65059 4.52912C3.55929 4.4357 3.50817 4.31026 3.50818 4.17963C3.50819 4.049 3.55932 3.92357 3.65062 3.83015C4.78033 2.72603 6.29988 2.11195 7.87952 2.1212C9.45916 2.13044 10.9714 2.76226 12.0881 3.87953L13 4.7939V3.00078C13 2.86817 13.0527 2.74099 13.1464 2.64723C13.2402 2.55346 13.3674 2.50078 13.5 2.50078C13.6326 2.50078 13.7598 2.55346 13.8536 2.64723C13.9473 2.74099 14 2.86817 14 3.00078ZM11.6506 11.4564C10.7093 12.3759 9.44337 12.8873 8.12747 12.8796C6.81156 12.8718 5.55175 12.3457 4.62125 11.4152L3.70688 10.5008H5.5C5.63261 10.5008 5.75979 10.4481 5.85355 10.3543C5.94732 10.2606 6 10.1334 6 10.0008C6 9.86817 5.94732 9.74099 5.85355 9.64722C5.75979 9.55346 5.63261 9.50078 5.5 9.50078H2.5C2.36739 9.50078 2.24021 9.55346 2.14645 9.64722C2.05268 9.74099 2 9.86817 2 10.0008V13.0008C2 13.1334 2.05268 13.2606 2.14645 13.3543C2.24021 13.4481 2.36739 13.5008 2.5 13.5008C2.63261 13.5008 2.75979 13.4481 2.85355 13.3543C2.94732 13.2606 3 13.1334 3 13.0008V11.2077L3.91438 12.122C5.02951 13.2428 6.544 13.8749 8.125 13.8795H8.15812C9.72568 13.8836 11.2317 13.2699 12.35 12.1714C12.4413 12.078 12.4924 11.9526 12.4924 11.8219C12.4925 11.6913 12.4413 11.5659 12.35 11.4724C12.2587 11.379 12.1345 11.325 12.0039 11.322C11.8733 11.319 11.7467 11.3673 11.6512 11.4564H11.6506Z" fill="#4E008E"/>
</svg>
