<svg width="16" height="16" viewBox="0 0 16 16" fill="none" xmlns="http://www.w3.org/2000/svg">
<path d="M4.66664 12.0008C3.83482 12.0008 3.03708 11.6847 2.44889 11.1221C1.86071 10.5595 1.53027 9.79643 1.53027 9.00078C1.53027 8.20513 1.86071 7.44207 2.44889 6.87946C3.03708 6.31685 3.83482 6.00078 4.66664 6.00078C4.86309 5.12557 5.43781 4.35644 6.26436 3.86259C6.67363 3.61806 7.1324 3.44848 7.61449 3.36352C8.09657 3.27857 8.59253 3.2799 9.07404 3.36745C9.55556 3.455 10.0132 3.62704 10.4208 3.87377C10.8285 4.12049 11.1781 4.43706 11.4498 4.8054C11.7215 5.17374 11.9099 5.58663 12.0043 6.02051C12.0987 6.45439 12.0972 6.90075 12 7.33411H12.6666C13.2855 7.33411 13.879 7.57995 14.3166 8.01753C14.7541 8.45512 15 9.04861 15 9.66745C15 10.2863 14.7541 10.8798 14.3166 11.3174C13.879 11.7549 13.2855 12.0008 12.6666 12.0008H12" stroke="#4E008E" stroke-width="1.5" stroke-linecap="round" stroke-linejoin="round"/>
<path d="M6 10L8 8L10 10" stroke="#4E008E" stroke-width="1.5" stroke-linecap="round" stroke-linejoin="round"/>
<path d="M8 8V14" stroke="#4E008E" stroke-width="1.5" stroke-linecap="round" stroke-linejoin="round"/>
</svg>
