<svg width="40" height="40" viewBox="0 0 40 40" fill="none" xmlns="http://www.w3.org/2000/svg">
<path d="M40 18.596C40 37.4186 29.3675 37.4186 18.9189 37.4186C8.47029 37.4186 0 28.9914 0 18.596C0 8.20053 8.47029 3 18.9189 3C29.3675 3 40 8.20053 40 18.596Z" fill="#E8DDF1"/>
<g clip-path="url(#clip0_777_12343)">
<path d="M27 16.7098L21.667 12.5618C21.199 12.1977 20.623 12 20.03 12C19.4371 12 18.861 12.1977 18.393 12.5618L13.059 16.7098C12.7385 16.9591 12.4791 17.2783 12.3008 17.6431C12.1224 18.0079 12.0298 18.4087 12.03 18.8148V26.0148C12.03 26.5452 12.2407 27.0539 12.6158 27.429C12.9909 27.8041 13.4996 28.0148 14.03 28.0148H26.03C26.5605 28.0148 27.0692 27.8041 27.4442 27.429C27.8193 27.0539 28.03 26.5452 28.03 26.0148V18.8148C28.03 17.9918 27.65 17.2148 27 16.7098Z" stroke="#2E2C30" stroke-width="1.5" stroke-linecap="round" stroke-linejoin="round"/>
<path d="M24 23C21.79 24.333 18.208 24.333 16 23" stroke="#2E2C30" stroke-width="1.5" stroke-linecap="round" stroke-linejoin="round"/>
</g>
<defs>
<clipPath id="clip0_777_12343">
<rect width="24" height="24" fill="white" transform="translate(8 8)"/>
</clipPath>
</defs>
</svg>
