<svg width="24" height="24" viewBox="0 0 24 24" fill="none" xmlns="http://www.w3.org/2000/svg">
<rect width="24" height="24" rx="12" fill="#25D366"/>
<path d="M5 19L5.98949 15.4068C5.37775 14.3522 5.05683 13.1578 5.06017 11.9368C5.06017 8.11074 8.18911 5 12.0301 5C13.8954 5 15.6471 5.72196 16.9608 7.03279C18.2779 8.34363 19.0033 10.087 19 11.9401C19 15.7662 15.8711 18.8769 12.0267 18.8769H12.0234C10.8567 18.8769 9.71012 18.5841 8.69054 18.0318L5 19ZM8.86771 16.7776L9.07832 16.904C9.96752 17.4297 10.9871 17.7058 12.0267 17.7091H12.0301C15.2225 17.7091 17.8233 15.1241 17.8233 11.9434C17.8233 10.403 17.2216 8.9558 16.1285 7.86454C15.0353 6.77329 13.5778 6.17443 12.0301 6.17443C8.83763 6.1711 6.23687 8.75618 6.23687 11.9368C6.23687 13.0247 6.54107 14.086 7.12273 15.0043L7.25979 15.2239L6.67478 17.3498L8.86771 16.7776Z" fill="white"/>
<path d="M5 19L5.98949 15.4068C5.37775 14.3522 5.05683 13.1578 5.06017 11.9368C5.06017 8.11074 8.18911 5 12.0301 5C13.8954 5 15.6471 5.72196 16.9608 7.03279C18.2779 8.34363 19.0033 10.087 19 11.9401C19 15.7662 15.8711 18.8769 12.0267 18.8769H12.0234C10.8567 18.8769 9.71012 18.5841 8.69054 18.0318L5 19ZM8.86771 16.7776L9.07832 16.904C9.96752 17.4297 10.9871 17.7058 12.0267 17.7091H12.0301C15.2225 17.7091 17.8233 15.1241 17.8233 11.9434C17.8233 10.403 17.2216 8.9558 16.1285 7.86454C15.0353 6.77329 13.5778 6.17443 12.0301 6.17443C8.83763 6.1711 6.23687 8.75618 6.23687 11.9368C6.23687 13.0247 6.54107 14.086 7.12273 15.0043L7.25979 15.2239L6.67478 17.3498L8.86771 16.7776Z" fill="url(#paint0_linear_1346_15187)"/>
<path fill-rule="evenodd" clip-rule="evenodd" d="M10.2882 9.03518C10.1578 8.74573 10.0208 8.73908 9.8971 8.73575C9.79681 8.73242 9.67981 8.73242 9.56281 8.73242C9.44581 8.73242 9.25861 8.77567 9.09815 8.94868C8.93769 9.12168 8.48975 9.54088 8.48975 10.3959C8.48975 11.2476 9.11486 12.0727 9.20178 12.1892C9.28869 12.3056 10.4086 14.1122 12.1769 14.8075C13.6478 15.3864 13.9487 15.27 14.2662 15.24C14.5838 15.2101 15.2959 14.8208 15.4429 14.4149C15.5867 14.009 15.5867 13.663 15.5432 13.5898C15.4998 13.5166 15.3828 13.4734 15.2089 13.3869C15.0351 13.3004 14.1793 12.8812 14.0189 12.8213C13.8584 12.7647 13.7414 12.7348 13.6278 12.9078C13.5108 13.0808 13.1765 13.4701 13.0762 13.5865C12.9759 13.703 12.8723 13.7163 12.6984 13.6298C12.5246 13.5433 11.963 13.3603 11.2978 12.7681C10.7796 12.3089 10.4286 11.74 10.3283 11.567C10.228 11.394 10.3183 11.3009 10.4052 11.2144C10.4821 11.1378 10.579 11.0114 10.666 10.9116C10.7529 10.8118 10.783 10.7386 10.8398 10.6222C10.8966 10.5057 10.8699 10.4059 10.8264 10.3194C10.783 10.2362 10.442 9.37786 10.2882 9.03518Z" fill="white"/>
<defs>
<linearGradient id="paint0_linear_1346_15187" x1="12.0014" y1="18.9987" x2="12.0014" y2="5" gradientUnits="userSpaceOnUse">
<stop stop-color="#F9F9F9"/>
<stop offset="1" stop-color="white"/>
</linearGradient>
</defs>
</svg>
